<mxfile host="app.diagrams.net" modified="2023-06-10T12:53:38.224Z" agent="Mozilla/5.0 (Macintosh; Intel Mac OS X 10_15_7) AppleWebKit/605.1.15 (KHTML, like Gecko) Version/16.3 Safari/605.1.15" etag="lZ7woR7KETchnEm2gmK6" version="21.3.8" type="device">
  <diagram name="Page-1" id="guipt-Qtwb_qKGQB02h6">
    <mxGraphModel dx="1242" dy="827" grid="1" gridSize="10" guides="1" tooltips="1" connect="1" arrows="1" fold="1" page="1" pageScale="1" pageWidth="827" pageHeight="1169" math="0" shadow="0">
      <root>
        <mxCell id="0" />
        <mxCell id="1" parent="0" />
        <mxCell id="A2aY8P6D0RiDC61dL8IL-1" value="Fact TableÂ " style="swimlane;fontStyle=1;childLayout=stackLayout;horizontal=1;startSize=26;horizontalStack=0;resizeParent=1;resizeParentMax=0;resizeLast=0;collapsible=1;marginBottom=0;align=center;fontSize=14;" vertex="1" parent="1">
          <mxGeometry x="334" y="400" width="186" height="386" as="geometry" />
        </mxCell>
        <mxCell id="A2aY8P6D0RiDC61dL8IL-2" value="Restaurant Key&amp;nbsp;" style="text;strokeColor=none;fillColor=none;spacingLeft=4;spacingRight=4;overflow=hidden;rotatable=0;points=[[0,0.5],[1,0.5]];portConstraint=eastwest;fontSize=12;whiteSpace=wrap;html=1;" vertex="1" parent="A2aY8P6D0RiDC61dL8IL-1">
          <mxGeometry y="26" width="186" height="30" as="geometry" />
        </mxCell>
        <mxCell id="A2aY8P6D0RiDC61dL8IL-3" value="Orders Key" style="text;strokeColor=none;fillColor=none;spacingLeft=4;spacingRight=4;overflow=hidden;rotatable=0;points=[[0,0.5],[1,0.5]];portConstraint=eastwest;fontSize=12;whiteSpace=wrap;html=1;" vertex="1" parent="A2aY8P6D0RiDC61dL8IL-1">
          <mxGeometry y="56" width="186" height="30" as="geometry" />
        </mxCell>
        <mxCell id="A2aY8P6D0RiDC61dL8IL-4" value="Items Key" style="text;strokeColor=none;fillColor=none;spacingLeft=4;spacingRight=4;overflow=hidden;rotatable=0;points=[[0,0.5],[1,0.5]];portConstraint=eastwest;fontSize=12;whiteSpace=wrap;html=1;" vertex="1" parent="A2aY8P6D0RiDC61dL8IL-1">
          <mxGeometry y="86" width="186" height="30" as="geometry" />
        </mxCell>
        <mxCell id="A2aY8P6D0RiDC61dL8IL-5" value="Time Key" style="text;strokeColor=none;fillColor=none;spacingLeft=4;spacingRight=4;overflow=hidden;rotatable=0;points=[[0,0.5],[1,0.5]];portConstraint=eastwest;fontSize=12;whiteSpace=wrap;html=1;" vertex="1" parent="A2aY8P6D0RiDC61dL8IL-1">
          <mxGeometry y="116" width="186" height="30" as="geometry" />
        </mxCell>
        <mxCell id="A2aY8P6D0RiDC61dL8IL-6" value="Customer Key" style="text;strokeColor=none;fillColor=none;spacingLeft=4;spacingRight=4;overflow=hidden;rotatable=0;points=[[0,0.5],[1,0.5]];portConstraint=eastwest;fontSize=12;whiteSpace=wrap;html=1;" vertex="1" parent="A2aY8P6D0RiDC61dL8IL-1">
          <mxGeometry y="146" width="186" height="30" as="geometry" />
        </mxCell>
        <mxCell id="A2aY8P6D0RiDC61dL8IL-7" value="Orderline Key" style="text;strokeColor=none;fillColor=none;spacingLeft=4;spacingRight=4;overflow=hidden;rotatable=0;points=[[0,0.5],[1,0.5]];portConstraint=eastwest;fontSize=12;whiteSpace=wrap;html=1;" vertex="1" parent="A2aY8P6D0RiDC61dL8IL-1">
          <mxGeometry y="176" width="186" height="30" as="geometry" />
        </mxCell>
        <mxCell id="A2aY8P6D0RiDC61dL8IL-8" value="Measures&amp;nbsp;" style="text;strokeColor=none;fillColor=none;spacingLeft=4;spacingRight=4;overflow=hidden;rotatable=0;points=[[0,0.5],[1,0.5]];portConstraint=eastwest;fontSize=12;whiteSpace=wrap;html=1;" vertex="1" parent="A2aY8P6D0RiDC61dL8IL-1">
          <mxGeometry y="206" width="186" height="30" as="geometry" />
        </mxCell>
        <mxCell id="A2aY8P6D0RiDC61dL8IL-9" value="Quantity Sold" style="text;strokeColor=none;fillColor=none;spacingLeft=4;spacingRight=4;overflow=hidden;rotatable=0;points=[[0,0.5],[1,0.5]];portConstraint=eastwest;fontSize=12;whiteSpace=wrap;html=1;" vertex="1" parent="A2aY8P6D0RiDC61dL8IL-1">
          <mxGeometry y="236" width="186" height="30" as="geometry" />
        </mxCell>
        <mxCell id="A2aY8P6D0RiDC61dL8IL-10" value="Total Sales" style="text;strokeColor=none;fillColor=none;spacingLeft=4;spacingRight=4;overflow=hidden;rotatable=0;points=[[0,0.5],[1,0.5]];portConstraint=eastwest;fontSize=12;whiteSpace=wrap;html=1;" vertex="1" parent="A2aY8P6D0RiDC61dL8IL-1">
          <mxGeometry y="266" width="186" height="30" as="geometry" />
        </mxCell>
        <mxCell id="A2aY8P6D0RiDC61dL8IL-11" value="Maximum Seles" style="text;strokeColor=none;fillColor=none;spacingLeft=4;spacingRight=4;overflow=hidden;rotatable=0;points=[[0,0.5],[1,0.5]];portConstraint=eastwest;fontSize=12;whiteSpace=wrap;html=1;" vertex="1" parent="A2aY8P6D0RiDC61dL8IL-1">
          <mxGeometry y="296" width="186" height="30" as="geometry" />
        </mxCell>
        <mxCell id="A2aY8P6D0RiDC61dL8IL-12" value="Minimum Sales" style="text;strokeColor=none;fillColor=none;spacingLeft=4;spacingRight=4;overflow=hidden;rotatable=0;points=[[0,0.5],[1,0.5]];portConstraint=eastwest;fontSize=12;whiteSpace=wrap;html=1;" vertex="1" parent="A2aY8P6D0RiDC61dL8IL-1">
          <mxGeometry y="326" width="186" height="30" as="geometry" />
        </mxCell>
        <mxCell id="A2aY8P6D0RiDC61dL8IL-33" value="Average Sales" style="text;strokeColor=none;fillColor=none;spacingLeft=4;spacingRight=4;overflow=hidden;rotatable=0;points=[[0,0.5],[1,0.5]];portConstraint=eastwest;fontSize=12;whiteSpace=wrap;html=1;" vertex="1" parent="A2aY8P6D0RiDC61dL8IL-1">
          <mxGeometry y="356" width="186" height="30" as="geometry" />
        </mxCell>
        <mxCell id="A2aY8P6D0RiDC61dL8IL-13" value="Time Key" style="swimlane;fontStyle=1;childLayout=stackLayout;horizontal=1;startSize=26;horizontalStack=0;resizeParent=1;resizeParentMax=0;resizeLast=0;collapsible=1;marginBottom=0;align=center;fontSize=14;labelBackgroundColor=default;" vertex="1" parent="1">
          <mxGeometry x="80" y="680" width="160" height="206" as="geometry" />
        </mxCell>
        <mxCell id="A2aY8P6D0RiDC61dL8IL-14" value="Time Key" style="text;strokeColor=none;fillColor=none;spacingLeft=4;spacingRight=4;overflow=hidden;rotatable=0;points=[[0,0.5],[1,0.5]];portConstraint=eastwest;fontSize=12;whiteSpace=wrap;html=1;" vertex="1" parent="A2aY8P6D0RiDC61dL8IL-13">
          <mxGeometry y="26" width="160" height="30" as="geometry" />
        </mxCell>
        <mxCell id="A2aY8P6D0RiDC61dL8IL-15" value="Day" style="text;strokeColor=none;fillColor=none;spacingLeft=4;spacingRight=4;overflow=hidden;rotatable=0;points=[[0,0.5],[1,0.5]];portConstraint=eastwest;fontSize=12;whiteSpace=wrap;html=1;" vertex="1" parent="A2aY8P6D0RiDC61dL8IL-13">
          <mxGeometry y="56" width="160" height="30" as="geometry" />
        </mxCell>
        <mxCell id="A2aY8P6D0RiDC61dL8IL-16" value="Week" style="text;strokeColor=none;fillColor=none;spacingLeft=4;spacingRight=4;overflow=hidden;rotatable=0;points=[[0,0.5],[1,0.5]];portConstraint=eastwest;fontSize=12;whiteSpace=wrap;html=1;" vertex="1" parent="A2aY8P6D0RiDC61dL8IL-13">
          <mxGeometry y="86" width="160" height="30" as="geometry" />
        </mxCell>
        <mxCell id="A2aY8P6D0RiDC61dL8IL-17" value="Month" style="text;strokeColor=none;fillColor=none;spacingLeft=4;spacingRight=4;overflow=hidden;rotatable=0;points=[[0,0.5],[1,0.5]];portConstraint=eastwest;fontSize=12;whiteSpace=wrap;html=1;" vertex="1" parent="A2aY8P6D0RiDC61dL8IL-13">
          <mxGeometry y="116" width="160" height="30" as="geometry" />
        </mxCell>
        <mxCell id="A2aY8P6D0RiDC61dL8IL-18" value="Quarter" style="text;strokeColor=none;fillColor=none;spacingLeft=4;spacingRight=4;overflow=hidden;rotatable=0;points=[[0,0.5],[1,0.5]];portConstraint=eastwest;fontSize=12;whiteSpace=wrap;html=1;" vertex="1" parent="A2aY8P6D0RiDC61dL8IL-13">
          <mxGeometry y="146" width="160" height="30" as="geometry" />
        </mxCell>
        <mxCell id="A2aY8P6D0RiDC61dL8IL-19" value="Year" style="text;strokeColor=none;fillColor=none;spacingLeft=4;spacingRight=4;overflow=hidden;rotatable=0;points=[[0,0.5],[1,0.5]];portConstraint=eastwest;fontSize=12;whiteSpace=wrap;html=1;" vertex="1" parent="A2aY8P6D0RiDC61dL8IL-13">
          <mxGeometry y="176" width="160" height="30" as="geometry" />
        </mxCell>
        <mxCell id="A2aY8P6D0RiDC61dL8IL-20" value="Restaurant" style="swimlane;fontStyle=1;childLayout=stackLayout;horizontal=1;startSize=26;horizontalStack=0;resizeParent=1;resizeParentMax=0;resizeLast=0;collapsible=1;marginBottom=0;align=center;fontSize=14;" vertex="1" parent="1">
          <mxGeometry x="80" y="220" width="160" height="116" as="geometry" />
        </mxCell>
        <mxCell id="A2aY8P6D0RiDC61dL8IL-21" value="restaurant_id" style="text;strokeColor=none;fillColor=none;spacingLeft=4;spacingRight=4;overflow=hidden;rotatable=0;points=[[0,0.5],[1,0.5]];portConstraint=eastwest;fontSize=12;whiteSpace=wrap;html=1;" vertex="1" parent="A2aY8P6D0RiDC61dL8IL-20">
          <mxGeometry y="26" width="160" height="30" as="geometry" />
        </mxCell>
        <mxCell id="A2aY8P6D0RiDC61dL8IL-22" value="restaurant_name&amp;nbsp;" style="text;strokeColor=none;fillColor=none;spacingLeft=4;spacingRight=4;overflow=hidden;rotatable=0;points=[[0,0.5],[1,0.5]];portConstraint=eastwest;fontSize=12;whiteSpace=wrap;html=1;" vertex="1" parent="A2aY8P6D0RiDC61dL8IL-20">
          <mxGeometry y="56" width="160" height="30" as="geometry" />
        </mxCell>
        <mxCell id="A2aY8P6D0RiDC61dL8IL-23" value="address&amp;nbsp;" style="text;strokeColor=none;fillColor=none;spacingLeft=4;spacingRight=4;overflow=hidden;rotatable=0;points=[[0,0.5],[1,0.5]];portConstraint=eastwest;fontSize=12;whiteSpace=wrap;html=1;" vertex="1" parent="A2aY8P6D0RiDC61dL8IL-20">
          <mxGeometry y="86" width="160" height="30" as="geometry" />
        </mxCell>
        <mxCell id="A2aY8P6D0RiDC61dL8IL-24" value="Order" style="swimlane;fontStyle=1;childLayout=stackLayout;horizontal=1;startSize=26;horizontalStack=0;resizeParent=1;resizeParentMax=0;resizeLast=0;collapsible=1;marginBottom=0;align=center;fontSize=14;" vertex="1" parent="1">
          <mxGeometry x="80" y="440" width="160" height="116" as="geometry" />
        </mxCell>
        <mxCell id="A2aY8P6D0RiDC61dL8IL-25" value="order_id" style="text;strokeColor=none;fillColor=none;spacingLeft=4;spacingRight=4;overflow=hidden;rotatable=0;points=[[0,0.5],[1,0.5]];portConstraint=eastwest;fontSize=12;whiteSpace=wrap;html=1;" vertex="1" parent="A2aY8P6D0RiDC61dL8IL-24">
          <mxGeometry y="26" width="160" height="30" as="geometry" />
        </mxCell>
        <mxCell id="A2aY8P6D0RiDC61dL8IL-26" value="order_date" style="text;strokeColor=none;fillColor=none;spacingLeft=4;spacingRight=4;overflow=hidden;rotatable=0;points=[[0,0.5],[1,0.5]];portConstraint=eastwest;fontSize=12;whiteSpace=wrap;html=1;" vertex="1" parent="A2aY8P6D0RiDC61dL8IL-24">
          <mxGeometry y="56" width="160" height="30" as="geometry" />
        </mxCell>
        <mxCell id="A2aY8P6D0RiDC61dL8IL-27" value="item" style="text;strokeColor=none;fillColor=none;spacingLeft=4;spacingRight=4;overflow=hidden;rotatable=0;points=[[0,0.5],[1,0.5]];portConstraint=eastwest;fontSize=12;whiteSpace=wrap;html=1;" vertex="1" parent="A2aY8P6D0RiDC61dL8IL-24">
          <mxGeometry y="86" width="160" height="30" as="geometry" />
        </mxCell>
        <mxCell id="A2aY8P6D0RiDC61dL8IL-28" value="Orderline" style="swimlane;fontStyle=1;childLayout=stackLayout;horizontal=1;startSize=26;horizontalStack=0;resizeParent=1;resizeParentMax=0;resizeLast=0;collapsible=1;marginBottom=0;align=center;fontSize=14;" vertex="1" parent="1">
          <mxGeometry x="620" y="770" width="160" height="116" as="geometry" />
        </mxCell>
        <mxCell id="A2aY8P6D0RiDC61dL8IL-29" value="item_id" style="text;strokeColor=none;fillColor=none;spacingLeft=4;spacingRight=4;overflow=hidden;rotatable=0;points=[[0,0.5],[1,0.5]];portConstraint=eastwest;fontSize=12;whiteSpace=wrap;html=1;" vertex="1" parent="A2aY8P6D0RiDC61dL8IL-28">
          <mxGeometry y="26" width="160" height="30" as="geometry" />
        </mxCell>
        <mxCell id="A2aY8P6D0RiDC61dL8IL-30" value="order_id" style="text;strokeColor=none;fillColor=none;spacingLeft=4;spacingRight=4;overflow=hidden;rotatable=0;points=[[0,0.5],[1,0.5]];portConstraint=eastwest;fontSize=12;whiteSpace=wrap;html=1;" vertex="1" parent="A2aY8P6D0RiDC61dL8IL-28">
          <mxGeometry y="56" width="160" height="30" as="geometry" />
        </mxCell>
        <mxCell id="A2aY8P6D0RiDC61dL8IL-31" value="quantity" style="text;strokeColor=none;fillColor=none;spacingLeft=4;spacingRight=4;overflow=hidden;rotatable=0;points=[[0,0.5],[1,0.5]];portConstraint=eastwest;fontSize=12;whiteSpace=wrap;html=1;" vertex="1" parent="A2aY8P6D0RiDC61dL8IL-28">
          <mxGeometry y="86" width="160" height="30" as="geometry" />
        </mxCell>
        <mxCell id="A2aY8P6D0RiDC61dL8IL-34" value="Customer" style="swimlane;fontStyle=0;childLayout=stackLayout;horizontal=1;startSize=26;horizontalStack=0;resizeParent=1;resizeParentMax=0;resizeLast=0;collapsible=1;marginBottom=0;align=center;fontSize=14;" vertex="1" parent="1">
          <mxGeometry x="620" y="460" width="160" height="176" as="geometry" />
        </mxCell>
        <mxCell id="A2aY8P6D0RiDC61dL8IL-35" value="customer_id" style="text;strokeColor=none;fillColor=none;spacingLeft=4;spacingRight=4;overflow=hidden;rotatable=0;points=[[0,0.5],[1,0.5]];portConstraint=eastwest;fontSize=12;whiteSpace=wrap;html=1;" vertex="1" parent="A2aY8P6D0RiDC61dL8IL-34">
          <mxGeometry y="26" width="160" height="30" as="geometry" />
        </mxCell>
        <mxCell id="A2aY8P6D0RiDC61dL8IL-36" value="last_name&amp;nbsp;" style="text;strokeColor=none;fillColor=none;spacingLeft=4;spacingRight=4;overflow=hidden;rotatable=0;points=[[0,0.5],[1,0.5]];portConstraint=eastwest;fontSize=12;whiteSpace=wrap;html=1;" vertex="1" parent="A2aY8P6D0RiDC61dL8IL-34">
          <mxGeometry y="56" width="160" height="30" as="geometry" />
        </mxCell>
        <mxCell id="A2aY8P6D0RiDC61dL8IL-37" value="first_name" style="text;strokeColor=none;fillColor=none;spacingLeft=4;spacingRight=4;overflow=hidden;rotatable=0;points=[[0,0.5],[1,0.5]];portConstraint=eastwest;fontSize=12;whiteSpace=wrap;html=1;" vertex="1" parent="A2aY8P6D0RiDC61dL8IL-34">
          <mxGeometry y="86" width="160" height="30" as="geometry" />
        </mxCell>
        <mxCell id="A2aY8P6D0RiDC61dL8IL-38" value="email" style="text;strokeColor=none;fillColor=none;spacingLeft=4;spacingRight=4;overflow=hidden;rotatable=0;points=[[0,0.5],[1,0.5]];portConstraint=eastwest;fontSize=12;whiteSpace=wrap;html=1;" vertex="1" parent="A2aY8P6D0RiDC61dL8IL-34">
          <mxGeometry y="116" width="160" height="30" as="geometry" />
        </mxCell>
        <mxCell id="A2aY8P6D0RiDC61dL8IL-39" value="phone_number" style="text;strokeColor=none;fillColor=none;spacingLeft=4;spacingRight=4;overflow=hidden;rotatable=0;points=[[0,0.5],[1,0.5]];portConstraint=eastwest;fontSize=12;whiteSpace=wrap;html=1;" vertex="1" parent="A2aY8P6D0RiDC61dL8IL-34">
          <mxGeometry y="146" width="160" height="30" as="geometry" />
        </mxCell>
        <mxCell id="A2aY8P6D0RiDC61dL8IL-40" value="Item" style="swimlane;fontStyle=1;childLayout=stackLayout;horizontal=1;startSize=26;horizontalStack=0;resizeParent=1;resizeParentMax=0;resizeLast=0;collapsible=1;marginBottom=0;align=center;fontSize=14;" vertex="1" parent="1">
          <mxGeometry x="630" y="220" width="160" height="146" as="geometry" />
        </mxCell>
        <mxCell id="A2aY8P6D0RiDC61dL8IL-41" value="item_id" style="text;strokeColor=none;fillColor=none;spacingLeft=4;spacingRight=4;overflow=hidden;rotatable=0;points=[[0,0.5],[1,0.5]];portConstraint=eastwest;fontSize=12;whiteSpace=wrap;html=1;" vertex="1" parent="A2aY8P6D0RiDC61dL8IL-40">
          <mxGeometry y="26" width="160" height="30" as="geometry" />
        </mxCell>
        <mxCell id="A2aY8P6D0RiDC61dL8IL-42" value="name" style="text;strokeColor=none;fillColor=none;spacingLeft=4;spacingRight=4;overflow=hidden;rotatable=0;points=[[0,0.5],[1,0.5]];portConstraint=eastwest;fontSize=12;whiteSpace=wrap;html=1;" vertex="1" parent="A2aY8P6D0RiDC61dL8IL-40">
          <mxGeometry y="56" width="160" height="30" as="geometry" />
        </mxCell>
        <mxCell id="A2aY8P6D0RiDC61dL8IL-43" value="price" style="text;strokeColor=none;fillColor=none;spacingLeft=4;spacingRight=4;overflow=hidden;rotatable=0;points=[[0,0.5],[1,0.5]];portConstraint=eastwest;fontSize=12;whiteSpace=wrap;html=1;" vertex="1" parent="A2aY8P6D0RiDC61dL8IL-40">
          <mxGeometry y="86" width="160" height="30" as="geometry" />
        </mxCell>
        <mxCell id="A2aY8P6D0RiDC61dL8IL-48" value="category" style="text;strokeColor=none;fillColor=none;spacingLeft=4;spacingRight=4;overflow=hidden;rotatable=0;points=[[0,0.5],[1,0.5]];portConstraint=eastwest;fontSize=12;whiteSpace=wrap;html=1;" vertex="1" parent="A2aY8P6D0RiDC61dL8IL-40">
          <mxGeometry y="116" width="160" height="30" as="geometry" />
        </mxCell>
        <mxCell id="A2aY8P6D0RiDC61dL8IL-49" value="" style="endArrow=classic;html=1;rounded=0;entryX=1.006;entryY=0.164;entryDx=0;entryDy=0;entryPerimeter=0;exitX=0;exitY=0.5;exitDx=0;exitDy=0;" edge="1" parent="1" source="A2aY8P6D0RiDC61dL8IL-2" target="A2aY8P6D0RiDC61dL8IL-20">
          <mxGeometry width="50" height="50" relative="1" as="geometry">
            <mxPoint x="390" y="560" as="sourcePoint" />
            <mxPoint x="280" y="420" as="targetPoint" />
            <Array as="points" />
          </mxGeometry>
        </mxCell>
        <mxCell id="A2aY8P6D0RiDC61dL8IL-50" value="" style="endArrow=classic;html=1;rounded=0;entryX=0.988;entryY=0.06;entryDx=0;entryDy=0;entryPerimeter=0;" edge="1" parent="1" source="A2aY8P6D0RiDC61dL8IL-3" target="A2aY8P6D0RiDC61dL8IL-24">
          <mxGeometry width="50" height="50" relative="1" as="geometry">
            <mxPoint x="390" y="560" as="sourcePoint" />
            <mxPoint x="220" y="450" as="targetPoint" />
          </mxGeometry>
        </mxCell>
        <mxCell id="A2aY8P6D0RiDC61dL8IL-51" value="" style="endArrow=classic;html=1;rounded=0;exitX=0;exitY=0.5;exitDx=0;exitDy=0;" edge="1" parent="1" source="A2aY8P6D0RiDC61dL8IL-5" target="A2aY8P6D0RiDC61dL8IL-13">
          <mxGeometry width="50" height="50" relative="1" as="geometry">
            <mxPoint x="390" y="560" as="sourcePoint" />
            <mxPoint x="440" y="510" as="targetPoint" />
          </mxGeometry>
        </mxCell>
        <mxCell id="A2aY8P6D0RiDC61dL8IL-52" value="" style="endArrow=classic;html=1;rounded=0;entryX=-0.019;entryY=0.096;entryDx=0;entryDy=0;entryPerimeter=0;exitX=1;exitY=0.5;exitDx=0;exitDy=0;" edge="1" parent="1" source="A2aY8P6D0RiDC61dL8IL-4" target="A2aY8P6D0RiDC61dL8IL-40">
          <mxGeometry width="50" height="50" relative="1" as="geometry">
            <mxPoint x="390" y="560" as="sourcePoint" />
            <mxPoint x="440" y="510" as="targetPoint" />
          </mxGeometry>
        </mxCell>
        <mxCell id="A2aY8P6D0RiDC61dL8IL-53" value="" style="endArrow=classic;html=1;rounded=0;entryX=0.006;entryY=0.085;entryDx=0;entryDy=0;entryPerimeter=0;exitX=1;exitY=0.5;exitDx=0;exitDy=0;" edge="1" parent="1" source="A2aY8P6D0RiDC61dL8IL-6" target="A2aY8P6D0RiDC61dL8IL-34">
          <mxGeometry width="50" height="50" relative="1" as="geometry">
            <mxPoint x="500" y="548" as="sourcePoint" />
            <mxPoint x="440" y="510" as="targetPoint" />
          </mxGeometry>
        </mxCell>
        <mxCell id="A2aY8P6D0RiDC61dL8IL-54" value="" style="endArrow=classic;html=1;rounded=0;entryX=0.019;entryY=0.069;entryDx=0;entryDy=0;entryPerimeter=0;exitX=1;exitY=0.5;exitDx=0;exitDy=0;" edge="1" parent="1" source="A2aY8P6D0RiDC61dL8IL-7" target="A2aY8P6D0RiDC61dL8IL-28">
          <mxGeometry width="50" height="50" relative="1" as="geometry">
            <mxPoint x="390" y="560" as="sourcePoint" />
            <mxPoint x="440" y="510" as="targetPoint" />
          </mxGeometry>
        </mxCell>
      </root>
    </mxGraphModel>
  </diagram>
</mxfile>
